<svg height="24" viewBox="0 0 24 24" width="24" fill="white" xmlns="http://www.w3.org/2000/svg"><path d="M 5.5 12.6 c 0 0 0 0 0 0 l -1.2 -7.3 c -0.1 -0.7 -0.7 -1.3 -1.5 -1.3 h -0.3 c -0.3 0 -0.5 -0.2 -0.5 -0.5 s 0.2 -0.5 0.5 -0.5 h 0.3 c 1.2 0 2.2 0.8 2.4 2 h 16.2 c 0.3 0 0.6 0.3 0.5 0.6 l -2 7 c -0.1 0.2 -0.3 0.4 -0.5 0.4 h -12.9 l 0.1 0.7 c 0.1 0.7 0.7 1.3 1.5 1.3 h 11.3 c 0.3 0 0.5 0.2 0.5 0.5 s -0.2 0.5 -0.5 0.5 h -11.3 c -1.2 0 -2.3 -0.9 -2.5 -2.1 l -0.2 -1.3 z m -0.1 -6.6 l 1 6 h 12.7 l 1.7 -6 z m 2.6 15 c -1.1 0 -2 -0.9 -2 -2 s 0.9 -2 2 -2 s 2 0.9 2 2 s -0.9 2 -2 2 z m 0 -1 c 0.6 0 1 -0.4 1 -1 s -0.4 -1 -1 -1 s -1 0.4 -1 1 s 0.4 1 1 1 z m 9 1 c -1.1 0 -2 -0.9 -2 -2 s 0.9 -2 2 -2 s 2 0.9 2 2 s -0.9 2 -2 2 z m 0 -1 c 0.6 0 1 -0.4 1 -1 s -0.4 -1 -1 -1 s -1 0.4 -1 1 s 0.4 1 1 1 z"/></svg>